<svg width="56" height="56" viewBox="0 0 56 56" fill="none" xmlns="http://www.w3.org/2000/svg">
<g clip-path="url(#clip0_830_86)">
<path d="M51.9072 53.8166C48.558 49.8538 42.5567 46.8322 35.3035 45.5988C34.5942 41.3513 33.3276 39.3668 33.2945 39.3116C33.8468 39.0526 34.5132 38.9643 35.2741 39.1324C36.2019 39.341 36.8352 39.8332 37.2193 40.4566C37.331 40.6382 37.6157 40.5769 37.6488 40.3658C37.6967 40.0565 37.682 39.719 37.5764 39.3447C37.3113 38.4132 36.586 37.6388 35.641 37.4351C35.0237 37.3038 34.4101 37.4056 33.8922 37.6805C34.372 37.2657 34.9697 36.927 35.6975 36.6901C37.2684 36.187 38.638 36.4324 39.7033 37.1123C39.8837 37.2265 40.1046 37.0608 40.0469 36.8546C39.8689 36.2152 39.5167 35.5881 38.8638 35.0125C37.7642 34.0454 36.2338 33.6257 34.8433 34.0859C34.3954 34.2344 33.9879 34.4553 33.6332 34.729C33.659 34.6958 33.6872 34.6615 33.713 34.6296C34.7378 33.4256 35.9687 32.9053 37.1825 32.8758C37.4463 32.8697 37.5641 32.5273 37.3617 32.3567C36.9309 31.9983 36.4007 31.716 35.7122 31.5688C34.1634 31.2386 32.5336 31.7025 31.5493 32.9421C31.1959 33.3851 30.9504 33.8846 30.8081 34.4001C30.3908 34.0626 29.9023 33.8012 29.355 33.6465C27.8332 33.2145 26.239 33.7889 25.1737 34.9585C24.7135 35.4629 24.4472 35.9894 24.306 36.5159C24.2324 36.7871 24.5441 37.0068 24.7785 36.8521C25.7763 36.1845 27.0661 35.8998 28.5843 36.2753C28.626 36.2876 28.6665 36.2986 28.7082 36.3085C28.2603 36.2913 27.8013 36.3502 27.3484 36.4913C25.9506 36.927 24.9516 38.1592 24.6214 39.5865C24.4324 40.4087 24.5012 41.1071 24.7147 41.7158C24.792 41.9367 25.0964 41.9416 25.1872 41.7256C25.6671 40.5744 26.628 39.6012 28.1744 39.1042C28.9021 38.8698 29.5857 38.7973 30.2165 38.8538C29.6336 38.9311 29.0764 39.2073 28.653 39.6748C28.0025 40.3916 27.8663 41.4409 28.194 42.354C28.3253 42.7221 28.5143 43.0069 28.7352 43.2314C28.8825 43.3824 29.1476 43.267 29.1316 43.0572C29.0764 42.3245 29.3059 41.5636 29.9379 40.8518C30.4252 40.3056 30.9799 39.9547 31.542 39.8761C31.5407 39.8761 32.4317 42.0643 32.5557 45.2221C31.0719 45.0699 29.5477 44.9852 27.9915 44.9852C24.1808 44.9852 20.5567 45.4602 17.2775 46.3205C17.9574 31.5037 27.076 21.6881 27.087 21.639V21.6378C28.21 22.3803 29.1586 23.5179 29.7723 25.1146C30.5712 27.1887 30.4338 29.0676 29.7109 30.6189C29.5035 31.0631 29.9895 31.5332 30.4362 31.3258C31.1038 31.0165 31.7481 30.5489 32.3397 29.8555C33.8038 28.1361 34.372 25.7282 33.5412 23.6296C32.9987 22.26 32.0059 21.2009 30.8019 20.5492C32.2256 20.9444 33.6602 21.6648 35.0581 22.773C38.0256 25.1305 39.3228 28.0514 39.4247 30.9539C39.4443 31.4988 40.1132 31.743 40.4629 31.3233C41.4288 30.1697 42.1566 28.6994 42.418 26.7469C42.8721 23.3584 41.7062 19.8472 39.0123 17.7424C38.141 17.0601 37.1874 16.5557 36.1933 16.2218C36.2927 16.2317 36.3909 16.2427 36.4915 16.2525C40.1144 16.6759 42.699 18.3573 44.3288 20.6363C44.7093 21.1677 45.572 20.9407 45.6334 20.2915C45.7598 19.0249 45.6076 17.6577 45.0185 16.1752C43.6563 12.7438 40.647 10.1813 36.9665 9.86954C35.6459 9.75785 34.361 9.92476 33.173 10.3187C33.2896 9.07181 33.1595 7.78687 32.7533 6.5277C31.6205 3.01282 28.4456 0.660155 24.7957 0.104205C23.1769 -0.141247 21.7791 0.0354784 20.5494 0.467475C19.9677 0.671201 19.9407 1.51678 20.5113 1.74751C23.1401 2.80787 25.3995 4.95312 26.6464 8.42873C26.6808 8.52323 26.7127 8.61773 26.7434 8.711C26.1936 7.81878 25.4867 7.00265 24.6251 6.30925C21.9656 4.16031 18.2814 3.8179 15.0844 5.0243C13.1846 5.74102 11.8984 6.82592 10.9865 8.07282C10.692 8.47537 11.0381 9.01904 11.5253 8.91718C14.4143 8.31459 17.6027 8.89754 20.6169 11.2956C22.0135 12.4051 23.0407 13.6385 23.7476 14.9381C22.8419 13.9097 21.584 13.1831 20.1272 12.9659C17.8948 12.6309 15.6771 13.7268 14.3333 15.5444C13.7945 16.2709 13.4877 16.9987 13.3355 17.7142C13.2324 18.2002 13.8056 18.5708 14.1983 18.2652C15.5458 17.2172 17.3389 16.6637 19.5344 16.9729C21.3373 17.227 22.7204 17.967 23.712 18.9869C23.5353 19.1378 12.5341 27.347 5.32641 52.4813C4.88705 52.8986 4.47837 53.333 4.10283 53.7773C3.36402 54.6524 3.98869 55.9999 5.13128 55.9999H50.8664C51.9918 56.006 52.6349 54.6781 51.9072 53.8166Z" fill="#987F0B"/>
</g>
<defs>
<clipPath id="clip0_830_86">
<rect width="56" height="56" fill="white"/>
</clipPath>
</defs>
</svg>
