<svg width="88" height="84" viewBox="0 0 88 84" fill="none" xmlns="http://www.w3.org/2000/svg">
<path d="M41.0961 53.256L30.8001 67.2L28.1601 60.48H21.1201L30.0961 48.804C31.8561 49.812 33.7041 49.98 35.0241 50.232C35.4641 50.316 35.9921 50.4 36.2561 50.4C36.4321 50.484 36.8721 50.82 37.1361 51.072C38.1921 51.744 39.5121 52.752 41.0961 53.256ZM57.9041 48.804C56.1441 49.812 54.2961 49.98 52.9761 50.232C52.5361 50.316 51.9201 50.4 51.6561 50.4C51.4801 50.484 51.0401 50.82 50.7761 51.072C49.8081 51.744 48.5761 52.752 46.9041 53.256L57.2001 67.2L59.8401 60.48H66.8801L57.9041 48.804ZM44.0001 26.88C40.5681 26.88 37.8401 29.484 37.8401 32.76C37.8401 36.036 40.5681 38.64 44.0001 38.64C47.4321 38.64 50.1601 36.036 50.1601 32.76C50.1601 29.484 47.4321 26.88 44.0001 26.88ZM60.7201 32.76C60.7201 34.776 58.4321 36.372 57.6401 38.136C56.8481 39.984 57.2881 42.672 55.7921 44.016C54.3841 45.36 51.5681 45.024 49.6321 45.78C47.7841 46.536 46.1121 48.72 44.0001 48.72C41.8881 48.72 40.2161 46.536 38.3681 45.78C36.4321 45.024 33.6161 45.444 32.2081 44.016C30.8001 42.672 31.1521 39.984 30.3601 38.136C29.5681 36.372 27.2801 34.776 27.2801 32.76C27.2801 30.744 29.5681 29.148 30.3601 27.384C31.1521 25.536 30.7121 22.848 32.2081 21.504C33.6161 20.16 36.4321 20.496 38.3681 19.74C40.2161 18.984 41.8881 16.8 44.0001 16.8C46.1121 16.8 47.7841 18.984 49.6321 19.74C51.5681 20.496 54.3841 20.076 55.7921 21.504C57.2001 22.848 56.8481 25.536 57.6401 27.384C58.4321 29.148 60.7201 30.744 60.7201 32.76ZM55.4401 32.76C55.4401 26.712 50.3361 21.84 44.0001 21.84C37.6641 21.84 32.5601 26.712 32.5601 32.76C32.5601 38.808 37.6641 43.68 44.0001 43.68C50.3361 43.68 55.4401 38.808 55.4401 32.76Z" fill="#FF40A2"/>
</svg>
