<svg width="20" height="20" viewBox="0 0 20 20" fill="none" xmlns="http://www.w3.org/2000/svg">
<path d="M10 20C22.8351 20 23.8224 0 10 0C-3.82242 0 -2.83511 20 10 20Z" fill="#B58054"/>
<path d="M14.9272 5.07357C14.2349 4.38128 13.3144 4 12.3353 4C11.3562 4 10.4358 4.38128 9.74346 5.07357C9.06918 5.74784 8.83205 6.31766 8.62283 6.8204C8.45416 7.22572 8.30848 7.57578 7.94257 7.94169C7.57665 8.3076 7.22657 8.45329 6.82125 8.622C6.31848 8.83125 5.74864 9.0684 5.07434 9.74271C3.64518 11.1719 3.64518 13.4973 5.07434 14.9264C5.76663 15.6187 6.68712 16 7.66619 16C8.64527 16 9.56573 15.6187 10.258 14.9264C10.9324 14.2521 11.1695 13.6823 11.3788 13.1795C11.5475 12.7742 11.6931 12.4241 12.0591 12.0582C12.425 11.6923 12.7751 11.5466 13.1804 11.3779C13.6831 11.1687 14.2529 10.9316 14.9272 10.2573C16.3563 8.82813 16.3563 6.50273 14.9272 5.07357ZM14.1996 6.40136C13.9601 6.88032 13.5671 7.41923 13.0787 7.94206C12.9299 7.75833 12.7683 7.57872 12.5952 7.40558C12.422 7.2324 12.2424 7.07084 12.0587 6.92204C12.5815 6.43365 13.1205 6.04067 13.5994 5.80119C14.1533 5.52425 14.3805 5.57665 14.4023 5.59845C14.4241 5.62022 14.4765 5.84746 14.1996 6.40136ZM10.4682 13.3986C10.4472 13.3997 10.4257 13.4004 10.4036 13.4004C10.0599 13.4004 9.59612 13.2608 9.09229 12.9715C9.49306 12.5384 9.74563 12.2054 9.97442 11.9037C10.1663 11.6507 10.3503 11.4083 10.6052 11.1293L11.2863 11.8103C10.9901 12.1819 10.8397 12.5429 10.6935 12.8943C10.6248 13.0592 10.5553 13.2261 10.4682 13.3986ZM7.93118 12.0696C7.75245 11.8908 7.59291 11.7099 7.45123 11.5298C7.89617 11.1103 8.22542 10.8606 8.54553 10.6178C8.82136 10.4086 9.08539 10.2082 9.39689 9.92097L10.0798 10.6039C9.79264 10.9154 9.59218 11.1794 9.38301 11.4552C9.14024 11.7753 8.89047 12.1046 8.47091 12.5495C8.29084 12.4079 8.10985 12.2482 7.93118 12.0696ZM9.53324 6.60155C9.88248 6.58238 10.3731 6.72004 10.9095 7.02816C10.5086 7.46144 10.256 7.79445 10.0272 8.09618C9.8353 8.3492 9.65129 8.59162 9.3963 8.87071L8.71524 8.18966C9.01148 7.81805 9.16186 7.45701 9.30812 7.1056C9.37673 6.94079 9.44625 6.77395 9.53324 6.60155ZM9.92172 9.39612C10.2089 9.08459 10.4094 8.82054 10.6186 8.54468C10.8613 8.22459 11.1111 7.8954 11.5306 7.45048C11.7106 7.59216 11.8916 7.75169 12.0703 7.93043C12.249 8.10915 12.4085 8.29014 12.5502 8.47021C12.1053 8.88967 11.7761 9.13939 11.456 9.38214C11.1802 9.59131 10.9162 9.79179 10.6046 10.079L9.92172 9.39612ZM12.3353 4.74227C12.763 4.74227 13.1765 4.83369 13.5539 5.00691C12.8812 5.27678 12.1123 5.84018 11.4436 6.48234C11.2507 6.36207 11.056 6.25657 10.8615 6.16794C10.5603 6.0307 10.2706 5.93866 9.99919 5.89214C10.0787 5.79688 10.1676 5.69915 10.2683 5.59845C10.8204 5.04633 11.5545 4.74227 12.3353 4.74227ZM7.10645 9.30729C7.45784 9.16104 7.81883 9.01068 8.19038 8.71449L8.87144 9.39555C8.5924 9.65049 8.35 9.83447 8.09698 10.0264C7.79525 10.2552 7.46219 10.5078 7.02891 10.9087C6.72077 10.3723 6.58313 9.88168 6.60228 9.53245C6.77473 9.44543 6.94162 9.3759 7.10645 9.30729ZM5.5992 10.2676C5.6999 10.1669 5.79763 10.078 5.89289 9.99847C5.93941 10.2699 6.03145 10.5596 6.16869 10.8608C6.2573 11.0552 6.36282 11.25 6.48309 11.4429C5.84148 12.111 5.27849 12.8792 5.00838 13.5515C4.51589 12.4729 4.71271 11.1541 5.5992 10.2676ZM5.80194 13.5986C6.04142 13.1197 6.4344 12.5808 6.92279 12.0579C7.07161 12.2417 7.23318 12.4213 7.40633 12.5944C7.57947 12.7675 7.75908 12.9291 7.94281 13.0779C7.41998 13.5664 6.88107 13.9593 6.40211 14.1988C5.84818 14.4758 5.621 14.4233 5.5992 14.4015C5.5774 14.3798 5.52497 14.1525 5.80194 13.5986ZM7.66619 15.2577C7.23838 15.2577 6.82466 15.1662 6.44714 14.9929C7.12001 14.7231 7.88892 14.1599 8.55773 13.5176C8.74968 13.6373 8.94346 13.7423 9.13692 13.8307C9.43913 13.9687 9.72985 14.0613 10.0022 14.108C9.92269 14.2032 9.83384 14.3009 9.73316 14.4016C9.18106 14.9537 8.44699 15.2577 7.66619 15.2577ZM12.8951 10.6926C12.5437 10.8389 12.1827 10.9892 11.8111 11.2855L11.13 10.6044C11.4091 10.3494 11.6515 10.1655 11.9045 9.97358C12.2062 9.74481 12.5392 9.49224 12.9724 9.09141C13.2804 9.62783 13.4182 10.1185 13.3991 10.4676C13.2267 10.5545 13.0599 10.624 12.8951 10.6926ZM14.4023 9.73241C14.3016 9.83311 14.2039 9.92199 14.1086 10.0015C14.0619 9.72912 13.9694 9.43835 13.8314 9.13612C13.7431 8.94269 13.638 8.74896 13.5184 8.55706C14.16 7.88896 14.723 7.12082 14.9931 6.44849C15.4856 7.52713 15.2888 8.84595 14.4023 9.73241Z" fill="black"/>
</svg>
