<svg width="20" height="20" viewBox="0 0 20 20" fill="none" xmlns="http://www.w3.org/2000/svg">
<path d="M10 20C22.8351 20 23.8224 0 10 0C-3.82242 0 -2.83511 20 10 20Z" fill="#28A9DB"/>
<path d="M14.9775 9.67449V8.99311C15.1508 8.9049 15.3112 8.78938 15.4527 8.64788C15.8056 8.29496 16 7.82574 16 7.32664C16 6.82754 15.8056 6.35833 15.4527 6.00543L14.1065 4.65925C13.7536 4.30633 13.2844 4.11198 12.7853 4.11198C12.2863 4.11198 11.817 4.30636 11.4641 4.65925C10.7356 5.38777 10.7356 6.57317 11.4641 7.3017L12.8103 8.64786C13.1632 9.00078 13.6324 9.19513 14.1315 9.19513C14.1662 9.19513 14.2008 9.19397 14.2352 9.19209V9.2081L12.7569 9.92003C12.1784 9.00652 11.1589 8.3987 9.99998 8.3987C8.84105 8.3987 7.82154 9.00652 7.24307 9.92L5.76479 9.2081V9.19209C5.79921 9.19397 5.83372 9.19513 5.86846 9.19513C5.86854 9.19513 5.86859 9.19513 5.86864 9.19513C6.36764 9.19513 6.83682 9.00078 7.1897 8.64788L8.53588 7.3017C9.26439 6.57319 9.26439 5.38779 8.53588 4.65925C8.18298 4.30633 7.71376 4.11198 7.21466 4.11198C6.71556 4.11198 6.24635 4.30633 5.89345 4.65923L4.54727 6.00541C4.19435 6.35833 4 6.82754 4 7.32664C4 7.82574 4.19435 8.29496 4.54727 8.64786C4.68878 8.78936 4.8492 8.90485 5.02252 8.99309V9.67449L6.92008 10.5883C6.84214 10.8117 6.78793 11.0461 6.76035 11.2885H4.88736V12.0307H6.76069C6.78801 12.2697 6.84148 12.5046 6.92006 12.731L5.23234 13.5437L5.55441 14.2125L7.2444 13.3987L7.63939 14.0239L6.52188 15.4251L7.10219 15.8879L8.27257 14.4204H11.7274L12.898 15.8881L13.4783 15.4253L12.3607 14.024L12.7557 13.399L14.4455 14.2128L14.7675 13.544L13.0798 12.7312C13.1585 12.5048 13.212 12.2698 13.2393 12.0307H15.1127V11.2885H13.2397C13.2121 11.0461 13.1579 10.8117 13.0799 10.5883L14.9775 9.67449ZM11.989 6.77685C11.6418 6.42966 11.5694 5.91045 11.7712 5.49119L13.6066 7.32664L13.0727 7.86058L11.989 6.77685ZM13.6418 8.34123L14.6564 7.32664L12.2956 4.96586C12.4464 4.89292 12.6129 4.85425 12.7853 4.85425C13.0862 4.85425 13.369 4.97138 13.5817 5.18411L14.9279 6.53026C15.1406 6.743 15.2577 7.02583 15.2577 7.32664C15.2577 7.62746 15.1406 7.91029 14.9279 8.123C14.7152 8.33571 14.4324 8.45286 14.1315 8.45286C13.959 8.45286 13.7926 8.41417 13.6418 8.34123ZM8.01104 6.77682L6.92728 7.86056L6.39334 7.32664L8.22882 5.49116C8.43065 5.91042 8.35823 6.42961 8.01104 6.77682ZM5.07211 6.53029L6.41828 5.18411C6.63102 4.9714 6.91382 4.85425 7.21466 4.85425C7.38714 4.85425 7.55361 4.89292 7.70441 4.96586L5.34363 7.32664L6.35826 8.34125C6.20748 8.41419 6.04106 8.45286 5.86864 8.45286C5.86861 8.45286 5.86854 8.45286 5.86854 8.45286C5.56765 8.45284 5.28482 8.33568 5.07213 8.123C4.85942 7.91029 4.74227 7.62746 4.74227 7.32664C4.74227 7.0258 4.85942 6.743 5.07211 6.53029ZM10 9.14097C11.3888 9.14097 12.5186 10.2708 12.5186 11.6596C12.5186 12.098 12.4045 12.5292 12.1885 12.9073L11.7012 13.6781H8.29882L7.8116 12.9073C7.59555 12.5292 7.48141 12.098 7.48141 11.6596C7.48141 10.2708 8.61127 9.14097 10 9.14097Z" fill="black"/>
</svg>
