<svg width="20" height="20" viewBox="0 0 20 20" fill="none" xmlns="http://www.w3.org/2000/svg">
<path d="M10 20C22.8351 20 23.8224 0 10 0C-3.82242 0 -2.83511 20 10 20Z" fill="#DF8041"/>
<g clip-path="url(#clip0_1:33)">
<path d="M15.7284 5.24795C15.552 5.21983 15.4121 5.3408 15.3726 5.50537C15.3638 5.54212 15.3547 5.57878 15.3447 5.61523C15.3406 5.63005 15.3365 5.64485 15.3323 5.65961C15.3126 5.72356 15.2917 5.78715 15.269 5.85011C15.1609 6.14999 15.0247 6.44021 14.8631 6.71501C14.8496 6.73801 14.836 6.76099 14.8222 6.78378C14.821 6.78575 14.8194 6.78837 14.8175 6.79129C14.7982 6.82197 14.7786 6.85254 14.7586 6.88277C14.714 6.94994 14.6682 7.01633 14.6203 7.08121C14.5212 7.2155 14.4158 7.3454 14.3016 7.4672C14.27 7.50085 14.2381 7.53421 14.2053 7.56665C14.1924 7.57952 14.1359 7.63252 14.1379 7.63132C14.0901 7.67423 14.0413 7.71607 13.9908 7.7558C13.8856 7.83868 13.7751 7.91554 13.6585 7.9817C13.7499 7.90169 13.8377 7.81271 13.9193 7.71343C14.5812 6.90823 14.5124 5.83528 14.5024 5.71552L14.4707 5.33787C14.4532 5.1293 14.2704 4.97905 14.0624 5.00225C13.8544 5.02547 13.6858 5.04428 13.6858 5.04428C13.5784 5.05632 12.7058 5.17092 12.0498 5.77918C12.0519 5.69183 12.0521 5.6047 12.0505 5.51812C12.0392 4.91037 11.9389 4.30831 11.8081 3.71593C11.7717 3.55083 11.6524 3.41918 11.4689 3.43711C11.3157 3.45207 11.1535 3.61075 11.1901 3.7763C11.3172 4.35195 11.418 4.9385 11.4314 5.52912C11.4333 5.61118 11.434 5.69332 11.4322 5.77538C11.432 5.78112 11.432 5.78566 11.4319 5.78933C11.4318 5.79084 11.4318 5.79228 11.4317 5.79397C11.431 5.81024 11.4303 5.82652 11.4295 5.84279C11.4278 5.87522 11.4261 5.90764 11.4237 5.94003C11.4131 6.08374 11.397 6.22725 11.3707 6.36901C11.3564 6.4462 11.3403 6.52312 11.3205 6.59908C11.3198 6.6017 11.3185 6.60644 11.3168 6.61232C11.0502 6.15951 10.7249 5.87398 10.6687 5.8264L10.3793 5.58174C10.2194 5.44662 9.98387 5.46962 9.85318 5.63313C9.72248 5.79664 9.61654 5.92918 9.61654 5.92918C9.54849 6.01443 9.00481 6.72553 8.98022 7.63145L8.75117 7.4378C8.62468 7.33086 8.41644 7.3768 8.28609 7.54047C8.15572 7.7041 8.05002 7.83675 8.05002 7.83675C7.98195 7.922 7.43904 8.63373 7.41444 9.53965L7.18612 9.34658C7.06008 9.23998 6.85254 9.2866 6.72276 9.45087C6.59301 9.61514 6.48747 9.74802 6.48747 9.74802C6.4125 9.84195 5.76364 10.6998 5.86497 11.7371C5.96633 12.7746 6.78565 13.4943 6.87737 13.5719L6.93887 13.6234L5.46245 15.4196C5.29912 15.6183 5.28858 15.8796 5.43654 16.0012C5.5845 16.1228 5.83877 16.0619 6.00211 15.8632L7.47904 14.0665C7.58851 14.1533 8.43188 14.7932 9.46066 14.6932C10.498 14.5917 11.2088 13.785 11.2865 13.6933L11.5311 13.4038C11.6663 13.2439 11.6709 13.0305 11.5415 12.9271C11.4121 12.8237 11.3072 12.7399 11.3072 12.7399C12.1914 12.5404 12.7836 11.8694 12.8541 11.7862L13.0988 11.4967C13.2339 11.3368 13.2385 11.1234 13.1091 11.02C12.9797 10.9166 12.8748 10.8328 12.8748 10.8328C13.7591 10.6333 14.3513 9.96232 14.4217 9.87907L14.6664 9.5896C14.8015 9.42973 14.7785 9.19421 14.615 9.06353C14.4515 8.93284 14.319 8.82689 14.319 8.82689C14.2825 8.79779 14.1312 8.6811 13.8991 8.55524C14.4039 8.29574 14.8241 7.86786 15.1472 7.41013C15.5318 6.86518 15.83 6.25387 15.9858 5.60373C16.0253 5.43922 15.8859 5.27305 15.7284 5.24795ZM12.4078 6.47119C12.8986 5.87415 13.7674 5.77709 13.7674 5.77709C13.7674 5.77709 13.8403 6.64823 13.3495 7.24527C12.8587 7.84229 11.99 7.93936 11.99 7.93936C11.99 7.93936 11.9171 7.06823 12.4078 6.47119ZM10.1925 6.38959C10.1925 6.38959 10.8601 6.95404 10.9353 7.72334C11.0104 8.49261 10.4647 9.17559 10.4647 9.17559C10.4647 9.17559 9.79716 8.61115 9.72201 7.84186C9.64685 7.07256 10.1925 6.38959 10.1925 6.38959ZM8.62501 8.29655C8.62501 8.29655 9.29268 8.86086 9.36783 9.63015C9.44298 10.3994 8.89729 11.0824 8.89729 11.0824C8.89729 11.0824 8.22963 10.5181 8.15449 9.74879C8.07933 8.97952 8.62501 8.29655 8.62501 8.29655ZM7.32965 12.9895C7.32965 12.9895 6.66211 12.4251 6.58694 11.6558C6.51179 10.8865 7.05748 10.2035 7.05748 10.2035C7.05748 10.2035 7.72503 10.7679 7.80018 11.5372C7.87534 12.3065 7.32965 12.9895 7.32965 12.9895ZM9.38889 13.959C8.67563 14.0288 8.03404 13.5625 7.94745 13.4967L8.06152 13.3579C8.26609 13.1579 8.71577 12.7996 9.27004 12.7455C10.0393 12.6703 10.7229 13.2165 10.7229 13.2165C10.7229 13.2165 10.1582 13.8838 9.38889 13.959ZM10.9564 12.052C10.2431 12.1218 9.60157 11.6555 9.51497 11.5897L9.62906 11.4509C9.83362 11.2509 10.2836 10.8928 10.8378 10.8385C11.607 10.7634 12.2908 11.3098 12.2908 11.3098C12.2908 11.3098 11.7256 11.9768 10.9564 12.052ZM12.524 10.1449C11.8107 10.2147 11.1692 9.7484 11.0826 9.68259L11.097 9.66514L11.0882 9.65792C11.2026 9.53095 11.7171 9.00211 12.4037 8.93504C13.173 8.85989 13.858 9.40237 13.858 9.40237C13.858 9.40237 13.2933 10.0697 12.524 10.1449Z" fill="black"/>
</g>
<defs>
<clipPath id="clip0_1:33">
<rect width="12" height="12" fill="white" transform="translate(4 4.16675) rotate(-5.57955)"/>
</clipPath>
</defs>
</svg>
