<svg width="20" height="20" viewBox="0 0 20 20" fill="none" xmlns="http://www.w3.org/2000/svg">
<path d="M10 20C22.8351 20 23.8224 0 10 0C-3.82242 0 -2.83511 20 10 20Z" fill="#F1A12E"/>
<g clip-path="url(#clip0_1:63)">
<path d="M15.9218 9.10416C15.7256 7.98795 15.1918 7.19291 14.4187 6.86552C13.8203 6.61214 13.1004 6.66172 12.3673 7.00136C11.7306 6.18335 10.9529 5.73819 10.1441 5.73819C9.22328 5.73819 8.34274 6.31495 7.66475 7.36222C7.64834 7.38756 7.63222 7.41316 7.61617 7.43884C6.92109 7.05902 6.22578 6.96974 5.63055 7.18987C4.88843 7.46421 4.35151 8.18786 4.11865 9.2275C3.90929 10.1622 3.97921 11.2121 4.31044 12.108C4.63763 12.993 5.19309 13.6343 5.91677 13.9626C6.26682 14.1214 6.64901 14.201 7.04292 14.201C7.40652 14.201 7.78009 14.1332 8.14739 13.9974C8.25417 13.958 8.35798 13.913 8.45848 13.8642C8.9548 14.1236 9.53063 14.2617 10.1441 14.2617C10.622 14.2617 11.0771 14.1781 11.4896 14.0184C11.8941 14.178 12.308 14.2581 12.7117 14.258C13.0802 14.258 13.4403 14.1912 13.7763 14.0572C14.5612 13.7441 15.1832 13.0896 15.575 12.1645C15.9723 11.2261 16.0987 10.1106 15.9218 9.10416V9.10416ZM6.18577 13.3697C5.62401 13.1149 5.18671 12.6005 4.92116 11.8823C4.63656 11.1125 4.57408 10.1733 4.75404 9.36986C4.93434 8.5649 5.33612 7.99292 5.8564 7.80059C6.27088 7.6473 6.77717 7.72225 7.30341 8.00993C6.91479 8.82349 6.69876 9.74463 6.69876 10.6269C6.69876 11.7342 7.04813 12.6651 7.7091 13.3192C7.7448 13.3545 7.78145 13.3888 7.81879 13.4223C7.24851 13.6082 6.6724 13.5905 6.18577 13.3697V13.3697ZM8.16703 12.8563C7.63243 12.3273 7.34982 11.5564 7.34982 10.6269C7.34982 9.63746 7.67188 8.5493 8.21133 7.71605C8.7572 6.87286 9.46169 6.38928 10.1441 6.38928C10.8265 6.38928 11.531 6.87286 12.0769 7.71605C12.6163 8.5493 12.9384 9.63746 12.9384 10.6269C12.9384 11.5564 12.6558 12.3273 12.1212 12.8563C11.6295 13.3428 10.9274 13.6107 10.1441 13.6107C9.36079 13.6107 8.65868 13.3428 8.16703 12.8563ZM14.9755 11.9107C14.653 12.6721 14.1549 13.2053 13.5351 13.4525C13.152 13.6053 12.7249 13.6438 12.2909 13.5703C12.3921 13.4926 12.4884 13.4089 12.5792 13.3192C13.2401 12.6651 13.5895 11.7342 13.5895 10.6269C13.5895 9.5731 13.2813 8.46377 12.7389 7.54867C13.2661 7.32615 13.7636 7.29519 14.1648 7.4651C14.7194 7.69998 15.1261 8.3385 15.2805 9.2169C15.434 10.0899 15.3199 11.097 14.9755 11.9107V11.9107Z" fill="black"/>
</g>
<defs>
<clipPath id="clip0_1:63">
<rect width="12" height="12" fill="white" transform="translate(4 4)"/>
</clipPath>
</defs>
</svg>
