<svg width="20" height="20" viewBox="0 0 20 20" fill="none" xmlns="http://www.w3.org/2000/svg">
<path d="M10 20C22.8351 20 23.8224 0 10 0C-3.82242 0 -2.83511 20 10 20Z" fill="#ECEE7A"/>
<path d="M12.2016 7.59985C12.063 7.2864 11.7795 6.80851 11.6364 6.57313V5.09091C11.9376 5.09091 12.1818 4.84669 12.1818 4.54545C12.1818 4.24422 11.9376 4 11.6364 4H8.36364C8.06237 4 7.81818 4.24422 7.81818 4.54545C7.81818 4.84669 8.06237 5.09091 8.36364 5.09091V6.58716C8.2408 6.8116 7.98382 7.28669 7.84488 7.58349L7.46429 8.39644C7.25491 8.844 7.09091 9.57542 7.09091 10.0616V15.4545C7.09091 15.7558 7.33509 16 7.63637 16H12.3636C12.6648 16 12.9091 15.7558 12.9091 15.4545V10.0616C12.9091 9.57887 12.754 8.84967 12.556 8.40145L12.2016 7.59985ZM10.5455 5.09091V6.18182H9.45455V5.09091H10.5455ZM11.8182 14.9091H8.18182V10.0616C8.18182 9.72895 8.30826 9.16687 8.45233 8.85887L8.83291 8.04596C8.93182 7.83473 9.10604 7.50673 9.23258 7.27269H10.784C10.9296 7.51713 11.1166 7.84364 11.2038 8.04095L11.5581 8.84244C11.6967 9.15593 11.8181 9.72567 11.8181 10.0616V14.9091H11.8182Z" fill="black"/>
</svg>
