<svg width="20" height="20" viewBox="0 0 20 20" fill="none" xmlns="http://www.w3.org/2000/svg">
<path d="M10 20C22.8351 20 23.8224 0 10 0C-3.82242 0 -2.83511 20 10 20Z" fill="#71C6DF"/>
<path d="M14.2427 6.58428C13.1094 5.45104 11.6027 4.82691 10 4.82691C8.39734 4.82691 6.89061 5.45104 5.75734 6.58428C4.62412 7.71753 4 9.22426 4 10.8269V11.0204L7.56437 13.5108V15.1731H12.4356V13.5108L16 11.0204V10.8269C16 9.22426 15.3759 7.71753 14.2427 6.58428ZM10.3711 12.9463V5.58239C11.5524 5.66516 12.6273 6.13966 13.4662 6.87671L10.7902 12.9463H10.3711ZM9.20976 12.9463L6.53376 6.87671C7.37274 6.13966 8.44765 5.66516 9.62887 5.58239V12.9463H9.20976ZM4.74571 10.6359C4.78913 9.42499 5.24426 8.3174 5.97466 7.44853L8.39853 12.9463H8.05231L4.74571 10.6359ZM8.30664 14.4308V13.6886H11.6934V14.4308H8.30664ZM11.9477 12.9463H11.6015L14.0253 7.44855C14.7558 8.31743 15.2109 9.42502 15.2543 10.6359L11.9477 12.9463Z" fill="black"/>
</svg>
