<svg width="20" height="20" viewBox="0 0 20 20" fill="none" xmlns="http://www.w3.org/2000/svg">
<path d="M10 20C22.8351 20 23.8224 0 10 0C-3.82242 0 -2.83511 20 10 20Z" fill="#5CB1FF"/>
<g clip-path="url(#clip0_1:58)">
<path d="M12.9631 6.16078C13.1614 6.16078 13.3221 6.00002 13.3221 5.80171C13.3221 5.60341 13.1614 5.44265 12.9631 5.44265C12.7648 5.44265 12.604 5.60341 12.604 5.80171C12.604 6.00002 12.7648 6.16078 12.9631 6.16078Z" fill="black"/>
<path d="M15.9055 5.13307L15.8378 4.83685L15.1812 4.81997L15.1644 4.16339L14.8681 4.09573C14.1495 3.9316 13.1357 3.98267 12.1561 4.2323C11.4264 4.41825 10.4224 4.79025 9.50629 5.52736C8.60804 5.55052 7.27499 6.15394 6.56277 6.86618C6.37119 7.05776 6.2776 7.30271 6.29211 7.5746C6.311 7.92884 6.51744 8.32784 6.90566 8.76052C6.9819 8.8455 7.05751 8.9231 7.12703 8.99119C6.89089 9.7252 6.80699 10.4228 6.83178 11.0264C5.77442 10.9496 4.60503 11.3326 4.19139 11.802C4.00956 12.0082 3.95417 12.253 4.03949 12.4736C4.20024 12.8891 4.64228 12.9684 5.0698 13.0452C5.50836 13.1239 6.00549 13.2131 6.39676 13.6044C6.78803 13.9957 6.87725 14.4928 6.95598 14.9314C7.03269 15.3589 7.11205 15.8009 7.52755 15.9617C7.59547 15.9879 7.66571 16.0009 7.73645 16.0009C7.89528 16.0009 8.05646 15.9356 8.1992 15.8098C8.66851 15.3961 9.05162 14.2268 8.97477 13.1694C9.0422 13.1721 9.1108 13.1736 9.1805 13.1736C9.73471 13.1735 10.3581 13.0838 11.0101 12.8741C11.0808 12.9467 11.1625 13.0266 11.2523 13.1071C11.6849 13.4953 12.0839 13.7018 12.4382 13.7207C12.4565 13.7216 12.4746 13.7221 12.4926 13.7221C12.7427 13.7221 12.9679 13.6286 13.1466 13.45C13.8659 12.7307 14.4743 11.3782 14.486 10.4799C15.2152 9.5678 15.5839 8.5707 15.7689 7.84505C16.0185 6.86553 16.0696 5.85169 15.9055 5.13307ZM7.07357 7.533C7.07089 7.48334 7.08207 7.45364 7.11613 7.41957C7.44442 7.09132 7.95866 6.77965 8.46974 6.57047C8.03122 7.10339 7.69424 7.64925 7.44315 8.18712C7.2441 7.95532 7.08289 7.70782 7.07357 7.533ZM12.5932 12.8967C12.5592 12.9307 12.5295 12.9417 12.4801 12.9393C12.303 12.93 12.0494 12.7626 11.8134 12.5582C12.3597 12.3033 12.9142 11.9599 13.455 11.5114C13.2459 12.0328 12.9283 12.5616 12.5932 12.8967ZM15.0106 7.65181C14.9382 7.93571 14.8345 8.26601 14.6865 8.6153C13.8492 8.51215 13.0697 8.13328 12.4688 7.53235C12.0429 7.10649 11.7326 6.60263 11.5465 6.03476L10.8029 6.27853C11.0276 6.96417 11.402 7.57219 11.9155 8.08571C12.5744 8.7446 13.4114 9.18197 14.317 9.34957C14.1002 9.71597 13.829 10.0827 13.4901 10.4216C12.7308 11.1808 11.8382 11.7548 10.9085 12.0814C10.1038 12.364 9.27496 12.4577 8.57453 12.3449L7.98993 12.2509L8.13259 12.8255C8.24007 13.2585 8.22088 13.8189 8.07995 14.363C7.98896 14.7144 7.87461 14.9546 7.78581 15.0934C7.76352 15.0012 7.74315 14.8875 7.72621 14.7931C7.63705 14.2963 7.51492 13.6158 6.9501 13.051C6.38528 12.4862 5.70484 12.3641 5.20803 12.2749C5.11363 12.258 4.99996 12.2375 4.90771 12.2153C5.04646 12.1265 5.28667 12.0121 5.63807 11.9212C6.18221 11.7802 6.74263 11.761 7.17559 11.8685L7.75028 12.0112L7.65622 11.4266C7.54351 10.7262 7.63712 9.89728 7.91978 9.0926C8.24635 8.16296 8.82029 7.27027 9.57955 6.51101C10.4831 5.6075 11.5845 5.18548 12.3494 4.9905C13.1803 4.77872 13.9062 4.75386 14.3981 4.80966L14.418 5.58303L15.1914 5.6029C15.2472 6.09507 15.2223 6.82088 15.0106 7.65181Z" fill="black"/>
</g>
<defs>
<clipPath id="clip0_1:58">
<rect width="12" height="12" fill="white" transform="translate(4 4)"/>
</clipPath>
</defs>
</svg>
